<?xml version="1.0" encoding="UTF-8" standalone="no"?>
<svg width="381px" height="292px" viewBox="0 0 381 292" version="1.1" xmlns="http://www.w3.org/2000/svg" xmlns:xlink="http://www.w3.org/1999/xlink">
    <!-- Generator: Sketch 3.8.3 (29802) - http://www.bohemiancoding.com/sketch -->
    <title>epna</title>
    <desc>Created with Sketch.</desc>
    <defs>
        <rect id="path-1" x="0" y="0" width="381" height="291.595267"></rect>
    </defs>
    <g id="Page-1" stroke="none" stroke-width="1" fill="none" fill-rule="evenodd">
        <g id="desktop-web---client-page---no-media" transform="translate(-662.000000, -2679.000000)">
            <g id="clients-section" transform="translate(236.000000, 2201.000000)">
                <g id="all-clients---grid" transform="translate(0.000000, 141.000000)">
                    <g id="epna" transform="translate(426.000000, 337.000000)">
                        <mask id="mask-2" fill="white">
                            <use xlink:href="#path-1"></use>
                        </mask>
                        <use id="Mask" fill="#FFFFFF" xlink:href="#path-1"></use>
                        <g mask="url(#mask-2)">
                            <g transform="translate(78.970909, 124.690909)">
                                <path d="M58.0089818,2.1336 L63.6616364,2.1336 L63.6616364,10.1969455 C68.1505315,4.04549652 73.9970913,0.969818182 81.2014909,0.969818182 C87.4083583,0.969818182 92.7561594,3.25579532 97.2450545,7.82781818 C101.73395,12.399841 103.978364,17.9000406 103.978364,24.3285818 C103.978364,30.7571231 101.761659,36.271177 97.3281818,40.8709091 C92.8947051,45.4706412 87.5746129,47.7704727 81.3677455,47.7704727 C74.6066935,47.7704727 68.7047161,44.750212 63.6616364,38.7096 L63.6616364,62.4008727 L58.0089818,62.4008727 L58.0089818,2.1336 Z M98.3257091,24.4117091 C98.3257091,19.4794662 96.621617,15.2538721 93.2133818,11.7348 C89.8051466,8.21572786 85.6349701,6.45621818 80.7027273,6.45621818 C75.7704844,6.45621818 71.6280168,8.18801905 68.2752,11.6516727 C64.9223832,15.1153264 63.246,19.3963381 63.246,24.4948364 C63.246,29.5933346 64.9639465,33.8743463 68.3998909,37.338 C71.8358354,40.8016537 75.9505942,42.5334545 80.7442909,42.5334545 C85.5379876,42.5334545 89.6666009,40.7739449 93.1302545,37.2548727 C96.5939082,33.7358006 98.3257091,29.4547889 98.3257091,24.4117091 L98.3257091,24.4117091 Z M114.618655,2.1336 L120.354436,2.1336 L120.354436,10.0306909 C124.89875,3.99007889 130.412804,0.969818182 136.896764,0.969818182 C140.221871,0.969818182 143.214423,1.87035463 145.874509,3.67145455 C148.534595,5.47255446 150.418794,7.82780363 151.527164,10.7372727 C152.635533,13.6467418 153.189709,17.9277536 153.189709,23.5804364 L153.189709,46.2741818 L147.537055,46.2741818 L147.537055,25.2429818 C147.537055,20.0890651 147.30153,16.5977546 146.830473,14.7689455 C146.359416,12.9401363 145.638987,11.3884427 144.669164,10.1138182 C143.699341,8.83919363 142.466298,7.86938514 140.97,7.20436364 C139.473702,6.53934213 137.658774,6.20683636 135.525164,6.20683636 C133.391553,6.20683636 131.299538,6.73330383 129.249055,7.78625455 C127.198572,8.83920526 125.452916,10.3077724 124.012036,12.192 C122.571156,14.0762276 121.601348,16.0158446 121.102582,18.0109091 C120.603816,20.0059736 120.354436,24.0237516 120.354436,30.0643636 L120.354436,46.2741818 L114.618655,46.2741818 L114.618655,2.1336 Z M209.300618,2.1336 L209.300618,46.2741818 L203.731091,46.2741818 L203.731091,38.7096 C198.688011,44.750212 192.924578,47.7704727 186.440618,47.7704727 C179.956658,47.7704727 174.484168,45.4567868 170.022982,40.8293455 C165.561796,36.2019041 163.331236,30.6878502 163.331236,24.2870182 C163.331236,17.8861862 165.57565,12.399841 170.064545,7.82781818 C174.553441,3.25579532 179.928951,0.969818182 186.191236,0.969818182 C193.395636,0.969818182 199.242196,4.04549652 203.731091,10.1969455 L203.731091,2.1336 L209.300618,2.1336 Z M204.0636,24.4117091 C204.0636,19.3686293 202.373362,15.1153264 198.992836,11.6516727 C195.61231,8.18801905 191.469843,6.45621818 186.565309,6.45621818 C181.660775,6.45621818 177.518308,8.24343667 174.137782,11.8179273 C170.757256,15.3924179 169.067018,19.618012 169.067018,24.4948364 C169.067018,29.3716607 170.784965,33.5972549 174.220909,37.1717455 C177.656854,40.7462361 181.771612,42.5334545 186.565309,42.5334545 C191.359006,42.5334545 195.473765,40.8155081 198.909709,37.3795636 C202.345654,33.9436192 204.0636,29.6210442 204.0636,24.4117091 L204.0636,24.4117091 Z" id="pna" fill="#000000"></path>
                                <path d="M39.3192,31.9762909 L44.1405818,34.4701091 C39.3745944,43.3370625 32.3365556,47.7704727 23.0262545,47.7704727 C16.3760395,47.7704727 10.8896943,45.4844956 6.56705455,40.9124727 C2.24441475,36.3404499 0.0831272727,30.8402503 0.0831272727,24.4117091 C0.0831272727,17.9831679 2.25826916,12.4691139 6.60861818,7.86938182 C10.9589672,3.26964973 16.3344771,0.969818182 22.7353091,0.969818182 C29.1361411,0.969818182 34.511651,3.10339685 38.862,7.37061818 C43.212349,11.6378395 45.4706174,17.4566904 45.6368727,24.8273455 L5.90203636,24.8273455 C6.06829174,30.1475175 7.74467498,34.4285292 10.9312364,37.6705091 C14.1177978,40.9124889 17.9831773,42.5334545 22.5274909,42.5334545 C30.0089829,42.5334545 35.6061633,39.0144352 39.3192,31.9762909 L39.3192,31.9762909 Z M39.3192,19.9228364 C38.5433416,15.7110335 36.6037246,12.4136846 33.5002909,10.0306909 C30.3968572,7.64769718 26.8224202,6.45621818 22.7768727,6.45621818 C14.4641039,6.45621818 9.03317638,10.945046 6.48392727,19.9228364 L39.3192,19.9228364 Z" id="e" fill="#417505"></path>
                            </g>
                        </g>
                    </g>
                </g>
            </g>
        </g>
    </g>
</svg>