<?xml version="1.0" encoding="UTF-8" standalone="no"?>
<svg width="381px" height="292px" viewBox="0 0 381 292" version="1.1" xmlns="http://www.w3.org/2000/svg" xmlns:xlink="http://www.w3.org/1999/xlink">
    <!-- Generator: Sketch 3.8.3 (29802) - http://www.bohemiancoding.com/sketch -->
    <title>breeo</title>
    <desc>Created with Sketch.</desc>
    <defs>
        <rect id="path-1" x="0" y="0" width="381" height="291.595267"></rect>
    </defs>
    <g id="Page-1" stroke="none" stroke-width="1" fill="none" fill-rule="evenodd">
        <g id="desktop-web---grid" transform="translate(-662.000000, -4377.000000)">
            <g id="clients-section" transform="translate(236.000000, 3562.000000)">
                <g id="all-clients---grid" transform="translate(0.000000, 141.000000)">
                    <g id="breeo" transform="translate(426.000000, 674.000000)">
                        <mask id="mask-2" fill="white">
                            <use xlink:href="#path-1"></use>
                        </mask>
                        <use id="Mask" fill="#FFFFFF" xlink:href="#path-1"></use>
                        <path d="M238.842211,149.075538 C241.207502,149.075538 243.572792,149.073992 245.938083,149.076945 C246.344462,149.077507 246.73931,149.076242 246.585336,148.483548 C246.159553,146.844535 245.781579,145.193992 245.103812,143.628099 C243.458332,139.826141 240.602152,137.559422 236.500402,137.061081 C234.707557,136.843268 232.87801,136.864501 231.05437,137.212946 C228.717061,137.659399 226.683904,138.617552 224.98977,140.27133 C222.732893,142.47435 221.565505,145.202991 221.195967,148.306091 C221.132831,148.835649 221.320271,148.980342 221.848704,148.983295 C225.405569,149.00284 228.962294,148.914112 232.519722,149.060211 C234.62389,149.146549 236.734527,149.07596 238.842211,149.075538 M178.62284,148.889645 L178.62284,148.925924 C182.581303,148.925924 186.539906,148.926205 190.498369,148.925783 C191.34642,148.925642 191.320828,148.919034 191.190478,148.108245 C191.022864,147.067129 190.727572,146.063979 190.401626,145.067438 C188.963412,140.669834 186.31,137.649275 181.473113,136.927918 C178.900555,136.544179 176.374822,136.607456 173.952722,137.488833 C169.083916,139.260727 166.610491,142.95638 165.939475,147.973817 C165.818405,148.879521 165.863824,148.888801 166.81818,148.889082 C170.75302,148.890348 174.687859,148.889645 178.62284,148.889645 M104.479173,155.51291 C104.474674,151.363069 103.763301,146.93706 102.325227,143.961358 C101.19707,141.627284 99.7364986,139.596657 97.5151978,138.219048 C94.3863654,136.278697 91.0305799,135.976093 87.5071809,136.947323 C84.5079959,137.774141 82.3473003,139.686088 80.7539877,142.238679 C78.9851871,145.072079 78.1669463,148.266016 77.8459214,151.554025 C77.501695,155.079533 77.6576375,158.595901 78.5750121,162.05293 C79.2034221,164.420471 80.1373893,166.648943 81.66855,168.560749 C83.6679597,171.057234 86.2447362,172.540867 89.489295,172.932762 C91.8161979,173.213711 94.0114849,172.901405 96.1108722,171.983186 C98.7974692,170.808205 100.642624,168.722035 101.974673,166.153274 C103.836139,162.563645 104.368087,158.681958 104.479173,155.51291 M304.05863,155.130295 C303.960902,151.402723 303.549321,147.482366 301.666059,143.860396 C300.089902,140.829291 297.753718,138.698406 294.450945,137.713114 C292.264657,137.0608 290.025639,136.980649 287.778605,137.286206 C284.611104,137.716911 282.001564,139.181701 280.040683,141.711372 C277.827397,144.566707 276.933786,147.941616 276.52572,151.438861 C276.16448,154.533945 276.202165,157.638733 276.70374,160.740989 C277.198424,163.800357 278.116361,166.670879 280.010732,169.150912 C281.517706,171.123886 283.482947,172.465919 285.895766,173.148185 C288.119879,173.777157 290.371693,173.865604 292.636725,173.535439 C294.21007,173.306096 295.716483,172.819285 297.089311,171.980234 C300.113103,170.132267 301.834095,167.314335 302.865086,164.039825 C303.748151,161.235252 304.032616,158.325498 304.05863,155.130295 M119.756188,161.689017 C119.261504,164.860175 118.457606,167.913497 117.142149,170.810454 C115.000015,175.527959 111.863167,179.40838 107.34843,182.051246 C105.250027,183.279662 102.985557,184.105074 100.581316,184.574167 C97.4874966,185.177829 94.4181445,185.009653 91.3251691,184.585557 C88.9442698,184.259048 86.6712226,183.636544 84.5095427,182.592193 C81.8268829,181.296142 79.6331426,179.44944 78.0583912,176.899381 C77.960523,176.740907 77.8640608,176.579762 77.7476313,176.435491 C77.6770424,176.348309 77.5690498,176.29136 77.3624858,176.13134 C77.3624858,176.551779 77.3623452,176.885882 77.3624858,177.220124 C77.3631889,179.024641 77.3412529,180.82958 77.3772505,182.633394 C77.3892028,183.232275 77.1826388,183.38892 76.6106155,183.383155 C72.0657865,183.337174 67.5208169,183.309754 62.9757067,183.299911 C62.4708975,183.298786 62.3494059,183.126672 62.3506714,182.651533 C62.3637486,177.120709 62.3153769,171.589323 62.38006,166.059343 C62.4055114,163.881351 62.4346188,161.702938 62.4399622,159.524806 C62.4634449,149.893076 62.3939809,140.260502 62.515332,130.630038 C62.6068726,123.367395 62.5184255,116.105315 62.6005449,108.843375 C62.6077163,108.205966 62.8009218,108.062819 63.399662,108.065491 C68.1569608,108.086021 72.9145408,108.074912 77.6719802,108.075897 C78.4393183,108.076037 78.517641,108.176577 78.4217413,108.943634 C78.3870093,109.221349 78.3602924,109.502299 78.3598706,109.781842 C78.3481995,117.210833 78.3404657,124.639823 78.3321694,132.068955 C78.3318881,132.319531 78.3320287,132.570108 78.3320287,132.850635 C78.6546004,132.826168 78.742485,132.618901 78.8561022,132.459865 C80.8950249,129.606498 83.6312591,127.652507 86.8368675,126.327629 C88.3415924,125.705688 89.9124066,125.314918 91.5158435,124.983909 C93.7159114,124.529581 95.9252599,124.389387 98.1337647,124.559954 C101.738158,124.838232 105.084804,125.965686 108.162311,127.914614 C112.208237,130.476907 115.038121,134.071739 117.055811,138.328025 C118.194795,140.730861 119.001928,143.270515 119.43207,145.913521 C119.511377,146.401456 119.659726,146.878283 119.798232,147.450728 C120.078198,147.111704 119.995235,146.798554 119.995656,146.516339 C120.002265,142.298019 119.953894,138.078855 120.018858,133.861379 C120.055277,131.496931 120.10393,129.132625 120.094368,126.767896 C120.092259,126.250853 120.276325,126.074662 120.796039,126.07874 C123.444248,126.098848 126.096957,125.995496 128.73926,126.120081 C130.680877,126.211622 132.621931,126.170984 134.56158,126.256619 C135.078622,126.279398 135.11012,126.515773 135.108995,126.914839 C135.100558,129.844279 135.10562,132.773719 135.106464,135.703158 L135.106464,136.647109 C135.625757,136.413969 135.600024,135.921253 135.779449,135.576745 C138.1813,130.965968 141.891577,127.872992 146.696544,126.00098 C149.242245,125.009079 151.864299,124.62534 154.585066,124.757097 C155.250598,124.789297 155.861994,125.019766 156.511778,125.094573 C156.955138,125.145757 157.071005,125.489281 157.063693,125.92561 C157.020946,128.478201 156.995916,131.031073 156.979042,133.584085 C156.977074,133.870659 156.821131,134.292505 157.112768,134.414841 C157.372625,134.523958 157.535317,134.11308 157.715867,133.913547 C160.909804,130.385367 164.791351,127.89071 169.281902,126.380923 C171.462424,125.647754 173.718317,125.225064 176.028908,124.970832 C178.593029,124.688757 181.124387,124.759487 183.649979,125.08234 C186.694583,125.471563 189.605462,126.367564 192.348024,127.784545 C195.519181,129.423136 198.187779,131.668623 200.396284,134.451682 C202.446315,137.035208 203.997444,139.902496 205.062324,143.032031 C205.42947,144.110832 205.820381,145.17979 206.04185,146.301338 C206.063646,146.412002 206.071379,146.557399 206.240399,146.515495 C206.393529,146.477529 206.447104,146.335367 206.48507,146.197845 C206.714132,145.369621 206.966115,144.550255 207.262673,143.741857 C209.237334,138.357133 212.436334,133.890345 217.077484,130.472127 C219.653417,128.574944 222.481614,127.230802 225.527624,126.279539 C229.518569,125.033124 233.61835,124.721802 237.723615,125.128884 C246.80568,126.029384 253.699067,130.473111 258.231803,138.434049 C259.648503,140.922379 260.652918,143.599695 261.477205,146.401034 C261.734953,145.623994 261.998888,144.848922 262.249746,144.069632 C263.966519,138.73581 266.990874,134.323581 271.464974,130.918018 C274.376837,128.701498 277.630395,127.223209 281.1552,126.292897 C285.649548,125.106807 290.204361,124.955927 294.793905,125.486609 C299.465148,126.026713 303.820427,127.487847 307.741768,130.125791 C312.599888,133.393973 315.899005,137.849089 317.859324,143.352634 C319.13358,146.929748 319.748351,150.600793 319.8053,154.386862 C319.84425,156.967154 319.789832,159.54168 319.319896,162.082037 C317.96127,169.42694 314.693791,175.659856 308.56268,180.162079 C305.703126,182.261888 302.517345,183.677885 299.075221,184.562918 C296.457807,185.235762 293.810863,185.537242 291.118361,185.627938 C288.444981,185.718073 285.789882,185.548069 283.180342,185.027089 C277.450829,183.883324 272.381223,181.419461 268.307315,177.14138 C265.709025,174.412879 263.808889,171.248752 262.525774,167.695684 C261.633992,165.226056 261.035251,162.699901 260.772863,160.096127 C260.698056,159.352974 260.410497,159.156675 259.679719,159.160613 C255.016352,159.185783 250.352,159.208562 245.689335,159.138255 C240.416962,159.058807 235.145011,159.127849 229.87306,159.09157 C227.295721,159.073853 224.718242,159.055995 222.140903,159.042777 C221.164048,159.037855 221.144362,159.045027 221.196952,159.985603 C221.353738,162.784973 221.949666,165.453712 223.400113,167.907872 C224.74524,170.183451 226.695856,171.672145 229.131595,172.565475 C230.605666,173.106 232.139076,173.407479 233.715093,173.446711 C234.13469,173.457117 234.314115,173.581843 234.328036,174.069075 C234.418873,177.231092 234.327754,180.39311 234.37472,183.554424 C234.381329,183.998066 234.264478,184.427786 234.329864,184.881693 C234.393141,185.321538 234.09588,185.498432 233.664472,185.466512 C231.804693,185.328287 229.946883,185.237168 228.1044,184.863131 C226.752665,184.58865 225.418365,184.280421 224.109658,183.856747 C220.70522,182.754604 217.621525,181.074954 214.920023,178.715287 C211.329691,175.579284 208.822941,171.731907 207.250439,167.234887 C206.400279,164.803788 205.822912,162.320662 205.546462,159.773133 C205.464765,159.019435 205.156536,158.930425 204.528688,158.930847 C194.803027,158.936894 185.077225,158.926629 175.351564,158.916504 C172.422265,158.913411 169.492825,158.910177 166.563666,158.880929 C166.042546,158.875726 165.868464,159.030684 165.888572,159.55996 C166.009501,162.741523 166.706813,165.748442 168.551124,168.402838 C170.016195,170.511225 172.037963,171.849461 174.47778,172.601613 C175.688056,172.974806 176.934471,173.122171 178.180604,173.272629 C178.554219,173.317767 178.645338,173.482146 178.644916,173.812733 C178.639432,177.445249 178.634651,181.077907 178.646744,184.710283 C178.648291,185.173048 178.426259,185.275416 178.040973,185.24209 C176.720173,185.128051 175.398108,185.101615 174.079276,184.868756 C172.816269,184.645881 171.556355,184.438614 170.3143,184.109714 C167.416499,183.342236 164.707122,182.15952 162.213449,180.494915 C157.299505,177.2145 153.990966,172.707496 151.987478,167.180328 C150.126997,162.047727 149.717806,156.762136 150.205741,151.373193 C150.562482,147.434979 151.628769,143.694189 153.44116,140.176274 C153.723656,139.627733 153.642381,139.485149 153.017767,139.484165 C150.887726,139.480649 148.764715,139.397124 146.662094,139.922322 C142.576796,140.942768 139.639341,143.358821 137.845651,147.129562 C136.38986,150.190056 135.822618,153.464566 135.815447,156.841725 C135.811088,158.927472 135.865928,161.014907 135.802651,163.098827 C135.610148,169.445923 135.750623,175.793722 135.703657,182.140959 C135.693111,183.550487 135.689455,183.55344 134.301019,183.551331 C129.754643,183.5443 125.208127,183.52377 120.661892,183.540082 C120.047262,183.542331 119.857713,183.37514 119.860806,182.752073 C119.884711,178.041599 119.833808,173.330422 119.895538,168.620651 C119.92099,166.677066 119.92563,164.73334 119.951644,162.789895 C119.956565,162.421342 119.954456,162.051805 119.756188,161.689017" id="Fill-1" fill="#6DC24F" mask="url(#mask-2)"></path>
                    </g>
                </g>
            </g>
        </g>
    </g>
</svg>