<?xml version="1.0" encoding="UTF-8" standalone="no"?>
<svg width="100px" height="100px" viewBox="0 0 100 100" version="1.1" xmlns="http://www.w3.org/2000/svg" xmlns:xlink="http://www.w3.org/1999/xlink">
    <!-- Generator: Sketch 3.8.3 (29802) - http://www.bohemiancoding.com/sketch -->
    <title>logo</title>
    <desc>Created with Sketch.</desc>
    <defs></defs>
    <g id="Page-1" stroke="none" stroke-width="1" fill="none" fill-rule="evenodd">
        <path d="M46.983,49.8011 C46.983,50.4271 46.86,51.0251 46.638,51.5731 L53.715,55.1291 C54.549,53.7681 56.05,52.8581 57.759,52.8581 C60.374,52.8581 62.5,54.9851 62.5,57.5991 C62.5,60.2141 60.374,62.3411 57.759,62.3411 C56.05,62.3411 54.549,61.4311 53.715,60.0701 L46.638,63.6261 C46.86,64.1741 46.983,64.7721 46.983,65.3971 C46.983,68.0111 44.856,70.1391 42.242,70.1391 C39.627,70.1391 37.5,68.0111 37.5,65.3971 C37.5,62.7831 39.627,60.6561 42.242,60.6561 C43.951,60.6561 45.452,61.5661 46.287,62.9271 L53.362,59.3701 C53.141,58.8231 53.018,58.2251 53.018,57.5991 C53.018,56.9741 53.141,56.3761 53.362,55.8281 L46.287,52.2721 C45.452,53.6331 43.951,54.5431 42.242,54.5431 C39.627,54.5431 37.5,52.4161 37.5,49.8011 C37.5,47.1871 39.627,45.0601 42.242,45.0601 C43.951,45.0601 45.452,45.9701 46.287,47.3311 L53.362,43.7751 C53.141,43.2271 53.018,42.6291 53.018,42.0041 C53.018,41.3781 53.141,40.7801 53.362,40.2331 L46.287,36.6761 C45.452,38.0371 43.951,38.9471 42.242,38.9471 C39.627,38.9471 37.5,36.8201 37.5,34.2061 C37.5,31.5921 39.627,29.4641 42.242,29.4641 C44.856,29.4641 46.983,31.5921 46.983,34.2061 C46.983,34.8311 46.86,35.4291 46.638,35.9771 L53.715,39.5331 C54.549,38.1721 56.05,37.2621 57.759,37.2621 C60.374,37.2621 62.5,39.3901 62.5,42.0041 C62.5,44.6181 60.374,46.7451 57.759,46.7451 C56.05,46.7451 54.549,45.8351 53.715,44.4741 L46.638,48.0301 C46.86,48.5781 46.983,49.1761 46.983,49.8011 M50,0.0001 C22.386,0.0001 0,22.3861 0,50.0001 C0,77.6141 22.386,100.0001 50,100.0001 C77.614,100.0001 100,77.6141 100,50.0001 C100,22.3861 77.614,0.0001 50,0.0001" id="logo" fill="#4D4539"></path>
    </g>
</svg>