<?xml version="1.0" encoding="UTF-8" standalone="no"?>
<svg width="381px" height="292px" viewBox="0 0 381 292" version="1.1" xmlns="http://www.w3.org/2000/svg" xmlns:xlink="http://www.w3.org/1999/xlink">
    <!-- Generator: Sketch 3.8.3 (29802) - http://www.bohemiancoding.com/sketch -->
    <title>task</title>
    <desc>Created with Sketch.</desc>
    <defs>
        <rect id="path-1" x="0" y="0" width="381" height="291.595267"></rect>
    </defs>
    <g id="Page-1" stroke="none" stroke-width="1" fill="none" fill-rule="evenodd">
        <g id="desktop-web---client-page---no-media" transform="translate(-662.000000, -2342.000000)">
            <g id="clients-section" transform="translate(236.000000, 2201.000000)">
                <g id="all-clients---grid" transform="translate(0.000000, 141.000000)">
                    <g id="task" transform="translate(426.000000, 0.000000)">
                        <mask id="mask-2" fill="white">
                            <use xlink:href="#path-1"></use>
                        </mask>
                        <use id="Mask" fill="#FFFFFF" xlink:href="#path-1"></use>
                        <g id="Group" mask="url(#mask-2)" fill="#000000">
                            <g transform="translate(48.490909, 110.836364)">
                                <path d="M242.954922,42.2106334 C242.413512,42.4089757 242.274166,42.4454423 242.148133,42.5077022 C234.017225,46.4932273 230.703088,52.8544136 232.362819,61.8767672 C233.632025,68.7760572 226.82979,73.1484833 219.479044,70.8920055 C215.880889,69.7873364 213.846608,67.2471312 213.849271,63.2936254 C213.860809,45.0630277 213.797793,26.83243 213.891874,8.60272172 C213.918501,3.51074866 217.945346,0.200299098 223.410033,0.326597818 C228.771764,0.451117684 232.287376,3.61570112 232.361044,8.66587108 C232.463113,15.7403783 232.386783,22.8175538 232.386783,30.6320648 C233.875216,29.6492472 234.839102,29.1324898 235.667193,28.44852 C245.592741,20.2515551 255.355866,11.8455748 265.507741,3.94212105 C268.082543,1.93824065 271.82182,0.851360108 275.134182,0.553401859 C278.272583,0.270563879 281.020459,2.23797775 282.070438,5.70941371 C283.088466,9.07411836 281.605359,11.4782412 279.125525,13.4412079 C272.744879,18.4922673 266.318968,23.4855139 259.917908,28.5098905 C258.646039,29.5078283 257.404347,30.543122 255.912364,31.7527435 C263.906588,40.169397 271.716201,48.4304006 279.571966,56.6478223 C284.236077,61.5272222 284.934584,65.5847909 281.562756,68.9263705 C277.970813,72.4867492 270.937813,72.4609558 267.103568,68.4647575 C260.85783,61.953258 254.877473,55.1873822 248.781732,48.5326848 C246.887686,46.4647656 244.981214,44.408409 242.954922,42.2106334" id="Fill-1"></path>
                                <path d="M171.446244,0 C180.000517,0.000889427609 188.166927,1.69880673 195.843406,5.53312916 C200.210185,7.71489508 201.954235,10.7700789 200.890054,14.2237263 C199.756644,17.9050672 195.063243,20.4710659 190.764806,19.4517818 C188.49266,18.9127887 186.353648,17.809009 184.161383,16.9427065 C178.330135,14.6373102 172.418119,12.9634074 166.050786,14.3153374 C162.981615,14.9672878 160.166285,16.1146494 159.863628,19.6536819 C159.548545,23.3261285 162.385177,24.8692854 165.299913,25.6920059 C171.540325,27.4521832 177.897895,28.7978871 184.137419,30.5634009 C187.529661,31.5230933 190.877526,32.7780757 194.070955,34.2732035 C208.302929,40.9394634 206.076048,59.5249428 195.91441,66.0906974 C188.213968,71.0661554 179.696085,72.2250796 170.885308,71.9075539 C161.326321,71.562456 152.207563,69.2615068 143.766897,64.5893436 C139.165803,62.0429123 137.574413,59.0295316 138.933263,55.4051141 C140.235309,51.9327887 144.583449,49.6887628 148.864136,50.6173253 C150.8354,51.0451399 152.747197,51.9799284 154.541837,52.9520727 C160.910945,56.4021624 167.632412,58.354456 174.912153,57.9969061 C176.665078,57.9106316 178.710897,57.9604396 180.072409,57.0870217 C182.106689,55.7831208 184.490667,54.0033762 185.209588,51.9052164 C186.252467,48.8580374 183.543644,47.0231483 180.890736,46.209322 C175.822787,44.6537131 170.624367,43.5250295 165.543991,42.0049977 C160.614501,40.5303267 155.517262,39.2958012 150.929481,37.0588908 C140.009869,31.7347771 137.759913,17.43456 146.215666,8.61766411 C153.11287,1.42575246 162.073644,0.0373559596 171.446244,0" id="Fill-4"></path>
                                <path d="M83.4613166,55.6894641 L114.177883,55.6894641 C109.010527,43.7898121 104.049085,32.364225 98.775222,20.2199804 C93.488046,32.4656198 88.5621057,43.8751971 83.4613166,55.6894641 L83.4613166,55.6894641 Z M60.9892656,69.3395096 C65.9152059,58.2981553 70.6547593,47.6632693 75.4031883,37.0310517 C79.7433411,27.3122762 84.1420727,17.6184047 88.4138837,7.86938866 C90.5076302,3.09049411 93.7046099,0.158051286 99.1923737,0.202522667 C104.53014,0.24610462 107.518544,3.27282677 109.543061,7.82491728 C118.254431,27.4118921 127.012842,46.9775206 135.744626,66.5556012 C136.095211,67.3418552 136.355265,68.1690229 136.792831,69.3395096 L60.9892656,69.3395096 Z" id="Fill-7"></path>
                                <path d="M26.0495263,15.3666408 C20.1304099,15.3666408 14.7021124,15.3995496 9.27381493,15.3568571 C3.89877084,15.315054 0.204759358,12.5151359 0.00772174432,8.42643717 C-0.189315869,4.34841158 3.33250959,1.0726497 8.78743379,1.02817832 C26.5217066,0.885869899 44.2595296,0.881422761 61.9938024,1.02195232 C67.5445827,1.06553428 70.7992536,4.16607892 70.650144,8.44600458 C70.5054723,12.5845112 66.9348312,15.3106069 61.4710314,15.3568571 C56.160779,15.4013285 50.849639,15.3666408 44.8124775,15.3666408 L44.8124775,20.198901 C44.8124775,33.9743558 44.8266784,47.7498106 44.805377,61.5252655 C44.7947263,68.0821258 41.7397558,71.3205317 35.5925373,71.3996908 C29.1408867,71.4824075 26.0788157,68.3462858 26.0610646,61.4647844 C26.0255623,47.8369745 26.0495263,34.2100541 26.0495263,20.5831337 L26.0495263,15.3666408" id="Fill-9"></path>
                            </g>
                        </g>
                    </g>
                </g>
            </g>
        </g>
    </g>
</svg>