<?xml version="1.0" encoding="UTF-8" standalone="no"?>
<svg width="381px" height="292px" viewBox="0 0 381 292" version="1.1" xmlns="http://www.w3.org/2000/svg" xmlns:xlink="http://www.w3.org/1999/xlink">
    <!-- Generator: Sketch 3.8.3 (29802) - http://www.bohemiancoding.com/sketch -->
    <title>us_salt</title>
    <desc>Created with Sketch.</desc>
    <defs>
        <rect id="path-1" x="0" y="0" width="381" height="291.595267"></rect>
        <polygon id="path-3" points="0 75.934075 232.47988 75.934075 232.47988 -0.000175 0 -0.000175"></polygon>
    </defs>
    <g id="Page-1" stroke="none" stroke-width="1" fill="none" fill-rule="evenodd">
        <g id="desktop-web---client-page---no-media" transform="translate(-236.000000, -3016.000000)">
            <g id="clients-section" transform="translate(236.000000, 2201.000000)">
                <g id="all-clients---grid" transform="translate(0.000000, 141.000000)">
                    <g id="us_salt" transform="translate(0.000000, 674.000000)">
                        <mask id="mask-2" fill="white">
                            <use xlink:href="#path-1"></use>
                        </mask>
                        <use id="Mask" fill="#FFFFFF" xlink:href="#path-1"></use>
                        <g id="logo" mask="url(#mask-2)">
                            <g transform="translate(74.000000, 108.000000)">
                                <path d="M107.608507,45.96165 L117.334462,45.1514 C117.545589,47.2514 117.974883,48.8509 118.622341,49.95165 C119.674462,51.7314 121.178747,52.62215 123.133439,52.62215 C124.59374,52.62215 125.717995,52.16715 126.507965,51.2554 C127.297935,50.34715 127.6938,49.29015 127.6938,48.0914 C127.6938,46.9504 127.315529,45.93015 126.562507,45.03065 C125.811244,44.13115 124.06768,43.2824 121.330056,42.4809 C116.847108,41.1404 113.650281,39.3624 111.739574,37.1399 C109.813033,34.9209 108.850642,32.09115 108.850642,28.65065 C108.850642,26.38965 109.341514,24.25465 110.328537,22.2439 C111.312041,20.2349 112.795214,18.65465 114.772777,17.5049 C116.752101,16.35515 119.463334,15.7794 122.909995,15.7794 C127.13783,15.7794 130.361048,16.82415 132.57965,18.91365 C134.796492,21.0049 136.119559,24.3299 136.538296,28.8904 L126.90383,29.6394 C126.645198,27.66015 126.110341,26.2199 125.288702,25.3204 C124.470582,24.41915 123.33577,23.9694 121.893063,23.9694 C120.70371,23.9694 119.809935,24.3054 119.208221,24.97565 C118.606507,25.6459 118.30565,26.45965 118.30565,27.4204 C118.30565,28.1204 118.553725,28.7504 119.049875,29.3104 C119.53195,29.88965 120.6738,30.4304 122.480702,30.9309 C126.947815,32.21015 130.148161,33.50515 132.08174,34.8159 C134.017078,36.1249 135.422838,37.7524 136.302537,39.6914 C137.182236,41.6304 137.622086,43.80215 137.622086,46.2014 C137.622086,49.02065 137.037965,51.62115 135.862687,54.0029 C134.690928,56.38115 133.04765,58.1854 130.94165,59.41565 C128.83389,60.64765 126.182477,61.2619 122.975093,61.2619 C117.350296,61.2619 113.453229,59.82165 111.287409,56.94115 C109.11983,54.0624 107.895289,50.4014 107.608507,45.96165 L107.608507,45.96165 Z" id="Fill-1" stroke="none" fill="#DC2136" fill-rule="evenodd"></path>
                                <path d="M159.832029,43.7416 L156.179517,27.93035 L152.565713,43.7416 L159.832029,43.7416 Z M161.952104,53.25285 L150.345352,53.25285 L148.731983,60.51185 L138.295232,60.51185 L150.728901,16.5291 L161.879968,16.5291 L174.311878,60.51185 L163.607698,60.51185 L161.952104,53.25285 Z" id="Fill-3" stroke="none" fill="#DC2136" fill-rule="evenodd"></path>
                                <polygon id="Fill-5" stroke="none" fill="#DC2136" fill-rule="evenodd" points="176.405386 16.52945 186.629251 16.52945 186.629251 49.68145 202.583477 49.68145 202.583477 60.5122 176.405386 60.5122"></polygon>
                                <polygon id="Fill-7" stroke="none" fill="#DC2136" fill-rule="evenodd" points="201.40468 16.52945 232.479176 16.52945 232.479176 27.38995 222.05298 27.38995 222.05298 60.5122 211.830875 60.5122 211.830875 27.38995 201.40468 27.38995"></polygon>
                                <mask id="mask-4" fill="white">
                                    <use xlink:href="#path-3"></use>
                                </mask>
                                <g id="Clip-10" stroke="none" fill="none"></g>
                                <polygon id="Fill-9" stroke="none" fill="#1A468E" fill-rule="evenodd" mask="url(#mask-4)" points="0 5.496575 46.6240602 5.496575 46.6240602 -0.000175 0 -0.000175"></polygon>
                                <polygon id="Fill-11" stroke="none" fill="#1A468E" fill-rule="evenodd" mask="url(#mask-4)" points="0 75.934075 46.6240602 75.934075 46.6240602 70.437325 0 70.437325"></polygon>
                                <polygon id="Fill-12" stroke="none" fill="#1A468E" fill-rule="evenodd" mask="url(#mask-4)" points="0 68.351325 46.6240602 68.351325 46.6240602 7.650825 0 7.650825"></polygon>
                                <path d="M28.9767654,14.77945 L39.1777579,14.77945 L39.1777579,40.98395 C39.1777579,43.5827 38.8716226,46.03445 38.2628707,48.34445 C37.6523594,50.6527 36.6987654,52.67045 35.3968105,54.4012 C34.0948556,56.1302 32.7313218,57.34295 31.3009308,58.04295 C29.3145699,59.0212 26.930585,59.51295 24.1472165,59.51295 C22.5373669,59.51295 20.7814872,59.36245 18.877818,59.0632 C16.9759083,58.7622 15.3836526,58.1672 14.1063293,57.2782 C12.8254872,56.38745 11.6554872,55.1257 10.5963293,53.48595 C9.53541203,51.84795 8.80878045,50.15745 8.41819398,48.4197 C7.78656992,45.62145 7.4698782,43.1417 7.4698782,40.98395 L7.4698782,14.77945 L17.6691113,14.77945 L17.6691113,41.60695 C17.6691113,44.0062 18.1705398,45.8787 19.1716376,47.22795 C20.1709759,48.5772 21.5591414,49.25095 23.3343744,49.25095 C25.0955323,49.25095 26.4749008,48.58595 27.4759985,47.25945 C28.4770962,45.92945 28.9767654,44.04645 28.9767654,41.60695 L28.9767654,14.77945 Z" id="Fill-13" stroke="none" fill="#FEFEFE" fill-rule="evenodd" mask="url(#mask-4)"></path>
                                <polygon id="Fill-14" stroke="none" fill="#194790" fill-rule="evenodd" mask="url(#mask-4)" points="55.4210526 5.496575 102.045113 5.496575 102.045113 -0.000175 55.4210526 -0.000175"></polygon>
                                <polygon id="Fill-15" stroke="none" fill="#194790" fill-rule="evenodd" mask="url(#mask-4)" points="55.4210526 75.934075 102.045113 75.934075 102.045113 70.437325 55.4210526 70.437325"></polygon>
                                <polygon id="Fill-16" stroke="none" fill="#194790" fill-rule="evenodd" mask="url(#mask-4)" points="55.4210526 68.351325 102.045113 68.351325 102.045113 7.650825 55.4210526 7.650825"></polygon>
                                <path d="M63.6476481,44.21165 L73.373603,43.4014 C73.5829714,45.5014 74.0140241,47.1009 74.6597233,48.20165 C75.7118436,49.9814 77.2178887,50.87215 79.1725805,50.87215 C80.6311218,50.87215 81.7571368,50.41715 82.5471068,49.5054 C83.3370767,48.59715 83.731182,47.54015 83.731182,46.3414 C83.731182,45.2004 83.3546707,44.18015 82.6034075,43.28065 C81.8521444,42.38115 80.1050617,41.5324 77.3674376,40.7309 C72.8844902,39.3904 69.6876632,37.6124 67.7769564,35.3899 C65.850415,33.1709 64.8880241,30.34115 64.8880241,26.90065 C64.8880241,24.63965 65.3806556,22.50465 66.3659188,20.4939 C67.351182,18.4849 68.8325955,16.90465 70.8119188,15.7549 C72.7894827,14.60515 75.5024752,14.0294 78.9473774,14.0294 C83.175212,14.0294 86.3984301,15.07415 88.6170316,17.16365 C90.8356331,19.2549 92.1569414,22.5799 92.5774376,27.1404 L82.9429714,27.8894 C82.6860992,25.91015 82.1494827,24.4699 81.329603,23.5704 C80.5079639,22.66915 79.3749113,22.2194 77.9322045,22.2194 C76.7428511,22.2194 75.8490767,22.5554 75.2473624,23.22565 C74.6456481,23.8959 74.3430316,24.70965 74.3430316,25.6704 C74.3430316,26.3704 74.5928662,27.0004 75.0890165,27.5604 C75.5693323,28.13965 76.7147008,28.6804 78.5180842,29.1809 C82.9869564,30.46015 86.1890617,31.75515 88.1208812,33.0659 C90.0544602,34.3749 91.4619789,36.0024 92.3416782,37.9414 C93.2231368,39.8804 93.6629865,42.05215 93.6629865,44.4514 C93.6629865,47.27065 93.0753474,49.87115 91.9018286,52.2529 C90.7283098,54.63115 89.0885504,56.4354 86.9825504,57.66565 C84.874791,58.89765 82.2198586,59.5119 79.0142346,59.5119 C73.3876782,59.5119 69.4923699,58.07165 67.3265504,55.19115 C65.1589714,52.3124 63.9326707,48.6514 63.6476481,44.21165" id="Fill-17" stroke="none" fill="#FEFEFE" fill-rule="evenodd" mask="url(#mask-4)"></path>
                            </g>
                        </g>
                    </g>
                </g>
            </g>
        </g>
    </g>
</svg>